<svg xmlns="http://www.w3.org/2000/svg" xmlns:xlink="http://www.w3.org/1999/xlink" viewBox="0,0,256,256" width="48px" height="48px"><g transform="translate(-7.68,-7.68) scale(1.06,1.06)"><g fill="#f44336" fill-rule="nonzero" stroke="none" stroke-width="1" stroke-linecap="butt" stroke-linejoin="miter" stroke-miterlimit="10" stroke-dasharray="" stroke-dashoffset="0" font-family="none" font-weight="none" font-size="none" text-anchor="none" style="mix-blend-mode: normal"><g transform="translate(-0.53333,-34.66667) scale(5.33333,5.33333)"><circle cx="24" cy="24" r="6"></circle><path d="M17.09,16.789l-2.769,-2.889c-2.658,2.548 -4.321,6.127 -4.321,10.1c0,3.973 1.663,7.552 4.321,10.1l2.769,-2.889c-1.9,-1.822 -3.09,-4.378 -3.09,-7.211c0,-2.833 1.19,-5.39 3.09,-7.211z"></path><path d="M33.679,13.9l-2.769,2.889c1.9,1.822 3.09,4.378 3.09,7.211c0,2.833 -1.19,5.389 -3.09,7.211l2.769,2.889c2.658,-2.548 4.321,-6.127 4.321,-10.1c0,-3.973 -1.663,-7.552 -4.321,-10.1z"></path><g><path d="M11.561,11.021l-2.779,-2.9c-4.177,4.004 -6.782,9.636 -6.782,15.879c0,6.243 2.605,11.875 6.782,15.879l2.779,-2.9c-3.419,-3.278 -5.561,-7.879 -5.561,-12.979c0,-5.1 2.142,-9.701 5.561,-12.979z"></path><path d="M39.218,8.121l-2.779,2.9c3.419,3.278 5.561,7.879 5.561,12.979c0,5.1 -2.142,9.701 -5.561,12.979l2.779,2.9c4.177,-4.004 6.782,-9.636 6.782,-15.879c0,-6.243 -2.605,-11.875 -6.782,-15.879z"></path></g></g></g><g fill="#000000" fill-rule="nonzero" stroke="none" stroke-width="1" stroke-linecap="butt" stroke-linejoin="miter" stroke-miterlimit="10" stroke-dasharray="" stroke-dashoffset="0" font-family="none" font-weight="none" font-size="none" text-anchor="none" style="mix-blend-mode: normal"><g><path d="M71.62833,188.38833v47.36h25.15v5.73h-32.19v-53.09zM111.03833,202.02833v39.45h-6.75v-39.45zM103.74833,191.56833v0c0,-1.1 0.33333,-2.02667 1,-2.78c0.66667,-0.75333 1.65667,-1.13 2.97,-1.13c1.31333,0 2.31,0.37667 2.99,1.13c0.68,0.75333 1.02,1.68 1.02,2.78c0,1.09333 -0.34,2.00333 -1.02,2.73c-0.68,0.72667 -1.67667,1.09 -2.99,1.09c-1.31333,0 -2.30333,-0.36333 -2.97,-1.09c-0.66667,-0.72667 -1,-1.63667 -1,-2.73zM124.81833,202.02833l10.03,30.3l9.77,-30.3h6.89l-14.15,39.45h-5.14l-14.29,-39.45zM173.88833,242.20833v0c-5.34667,0 -9.69667,-1.75667 -13.05,-5.27c-3.35333,-3.51333 -5.03,-8.21 -5.03,-14.09v0v-1.24c0,-3.91333 0.74667,-7.40667 2.24,-10.48c1.49333,-3.08 3.58333,-5.48667 6.27,-7.22c2.68667,-1.74 5.6,-2.61 8.74,-2.61v0c5.12667,0 9.11,1.69 11.95,5.07c2.84667,3.37333 4.27,8.21 4.27,14.51v0v2.8h-26.72c0.09333,3.89333 1.22667,7.03667 3.4,9.43c2.18,2.39333 4.94667,3.59 8.3,3.59v0c2.38,0 4.39667,-0.48667 6.05,-1.46c1.65333,-0.97333 3.1,-2.26 4.34,-3.86v0l4.12,3.21c-3.30667,5.08 -8.26667,7.62 -14.88,7.62zM173.05833,206.83833v0c-2.72667,0 -5.01333,0.99 -6.86,2.97c-1.84667,1.98 -2.99,4.75667 -3.43,8.33v0h19.76v-0.51c-0.19333,-3.42667 -1.11667,-6.08 -2.77,-7.96c-1.65333,-1.88667 -3.88667,-2.83 -6.7,-2.83z"></path></g></g></g></svg>